<svg width="1353" height="800" xmlns="http://www.w3.org/2000/svg" xmlns:xlink="http://www.w3.org/1999/xlink" xml:space="preserve" overflow="hidden"><g transform="translate(-27 -651)"><path d="M702.242 651.406 702.242 1446.79" stroke="#9E9E9E" stroke-width="3.4375" stroke-linejoin="round" stroke-miterlimit="10" fill="none" fill-rule="evenodd"/><path d="M27.0175 796.114 1377.47 796.114" stroke="#9E9E9E" stroke-width="3.4375" stroke-linejoin="round" stroke-miterlimit="10" fill="none" fill-rule="evenodd"/><path d="M27.0175 1016.1 1377.47 1016.1" stroke="#9E9E9E" stroke-width="3.4375" stroke-linejoin="round" stroke-miterlimit="10" fill="none" fill-rule="evenodd"/><path d="M27.0175 1159.09 1377.47 1159.09" stroke="#9E9E9E" stroke-width="3.4375" stroke-linejoin="round" stroke-miterlimit="10" fill="none" fill-rule="evenodd"/><path d="M27.0175 1302.08 1377.47 1302.08" stroke="#9E9E9E" stroke-width="3.4375" stroke-linejoin="round" stroke-miterlimit="10" fill="none" fill-rule="evenodd"/><path d="M28.7361 651.406 28.7361 1446.79" stroke="#9E9E9E" stroke-width="3.4375" stroke-linejoin="round" stroke-miterlimit="10" fill="none" fill-rule="evenodd"/><path d="M1375.75 651.406 1375.75 1446.79" stroke="#9E9E9E" stroke-width="3.4375" stroke-linejoin="round" stroke-miterlimit="10" fill="none" fill-rule="evenodd"/><path d="M27.0175 653.125 1377.47 653.125" stroke="#9E9E9E" stroke-width="3.4375" stroke-linejoin="round" stroke-miterlimit="10" fill="none" fill-rule="evenodd"/><path d="M27.0175 1445.07 1377.47 1445.07" stroke="#9E9E9E" stroke-width="3.4375" stroke-linejoin="round" stroke-miterlimit="10" fill="none" fill-rule="evenodd"/><g><text font-family="Arial,Arial_MSFontService,sans-serif" font-weight="400" font-size="64" transform="matrix(1 0 0 1 735.237 748)">Embodied Agent</text></g><g><text font-family="Arial,Arial_MSFontService,sans-serif" font-weight="400" font-size="64" transform="matrix(1 0 0 1 61.7306 748)">Red triangle</text></g><g><text font-family="Arial,Arial_MSFontService,sans-serif" font-weight="400" font-size="64" transform="matrix(1 0 0 1 735.237 891)">Stationary Items </text></g><g><text font-family="Arial,Arial_MSFontService,sans-serif" font-weight="400" font-size="64" transform="matrix(1 0 0 1 735.237 968)">(Bed, Couch, Table)</text></g><g><text font-family="Arial,Arial_MSFontService,sans-serif" font-weight="400" font-size="64" transform="matrix(1 0 0 1 61.7306 891)">Green Tile</text></g><g><text font-family="Arial,Arial_MSFontService,sans-serif" font-weight="400" font-size="64" transform="matrix(1 0 0 1 735.237 1111)">Human</text></g><g><text font-family="Arial,Arial_MSFontService,sans-serif" font-weight="400" font-size="64" transform="matrix(1 0 0 1 61.7306 1111)">Purple Circle</text></g><g><text font-family="Arial,Arial_MSFontService,sans-serif" font-weight="400" font-size="64" transform="matrix(1 0 0 1 735.237 1254)">Portable Object</text></g><g><text font-family="Arial,Arial_MSFontService,sans-serif" font-weight="400" font-size="64" transform="matrix(1 0 0 1 61.7306 1254)">Blue Circle</text></g><g><text font-family="Arial,Arial_MSFontService,sans-serif" font-weight="400" font-size="64" transform="matrix(1 0 0 1 735.237 1397)">Target Object</text></g><g><text font-family="Arial,Arial_MSFontService,sans-serif" font-weight="400" font-size="64" transform="matrix(1 0 0 1 61.7306 1397)">Yellow Key</text></g></g></svg>